<svg id="Capa_1" data-name="Capa 1" xmlns="http://www.w3.org/2000/svg" viewBox="0 0 14.49 14.42"><defs><style>.cls-1{fill:#254d9e;}</style></defs><title>PAGINA WEB COMPONENTES</title><path class="cls-1" d="M13,10.3l-.44-.43L14.3,8.12a.61.61,0,0,0,0-.88L12.12,5.05l-.44.44a1.81,1.81,0,0,1-2.62,0,1.81,1.81,0,0,1,0-2.62l.44-.44L7.25.18a.63.63,0,0,0-.88,0L4.64,1.91a0,0,0,0,1,0,0L4.3,1.6a2,2,0,0,0-2.85-.06A1.81,1.81,0,0,0,1.5,4.12l.43.43L.18,6.36a.63.63,0,0,0,0,.88L2.37,9.43,2.81,9A1.81,1.81,0,0,1,5.43,9a1.82,1.82,0,0,1,0,2.63L5,12.05l2.18,2.19a.63.63,0,0,0,.88,0l1.75-1.75.44.44a1.81,1.81,0,0,0,2.62,0A1.72,1.72,0,0,0,13,10.3Z"/></svg>