<svg id="Capa_1" data-name="Capa 1" xmlns="http://www.w3.org/2000/svg" viewBox="0 0 253.31 253.31"><defs><style>.cls-1{fill:#4066d4;}</style></defs><title>PAGINA WEB COMPONENTES</title><path class="cls-1" d="M92.44,72c7.39-1.51,18-2.35,28.05-2.35,15.62,0,25.69,2.86,32.74,9.24,5.71,5,8.9,12.76,8.9,21.49,0,14.95-9.4,24.86-21.32,28.89v.5c8.73,3,13.94,11.08,16.62,22.84,3.7,15.78,6.38,26.7,8.73,31.07H151.05c-1.85-3.19-4.36-12.93-7.56-27-3.36-15.62-9.4-21.5-22.67-22H107.05v49H92.44Zm14.61,51.56h15c15.62,0,25.52-8.57,25.52-21.5,0-14.61-10.58-21-26-21.16-7,0-12.09.68-14.44,1.35Z"/><path class="cls-1" d="M126.65,253.31A126.66,126.66,0,1,1,253.31,126.65,126.8,126.8,0,0,1,126.65,253.31Zm0-233.31A106.66,106.66,0,1,0,233.31,126.65,106.77,106.77,0,0,0,126.65,20Z"/></svg>