<svg id="Capa_1" data-name="Capa 1" xmlns="http://www.w3.org/2000/svg" viewBox="0 0 176.21 284.41"><defs><style>.cls-1{fill:#4066d4;}</style></defs><title>PAGINA WEB COMPONENTES</title><path class="cls-1" d="M145.43,0H30.78A30.82,30.82,0,0,0,0,30.79V253.63a30.82,30.82,0,0,0,30.78,30.78H145.43a30.82,30.82,0,0,0,30.78-30.78V30.79A30.82,30.82,0,0,0,145.43,0Zm10.78,253.63a10.79,10.79,0,0,1-10.78,10.78H30.78A10.8,10.8,0,0,1,20,253.63V30.79A10.8,10.8,0,0,1,30.78,20H51.67A16.64,16.64,0,0,0,67.94,33.25h40.34A16.65,16.65,0,0,0,124.55,20h20.88a10.79,10.79,0,0,1,10.78,10.79Z"/></svg>