<svg id="Capa_1" data-name="Capa 1" xmlns="http://www.w3.org/2000/svg" viewBox="0 0 226.27 284.41"><defs><style>.cls-1{fill:#4066d4;}</style></defs><title>PAGINA WEB COMPONENTES</title><path class="cls-1" d="M113.13,284.41h0a22.23,22.23,0,0,1-16.66-7.52C84,262.77,60,234.53,39.24,204,13.2,165.75,0,135.17,0,113.14a113.14,113.14,0,1,1,226.27,0c0,22-13.2,52.61-39.24,90.9-20.74,30.49-44.76,58.73-57.23,72.85A22.25,22.25,0,0,1,113.13,284.41Zm0-264.41A93.24,93.24,0,0,0,20,113.14c0,12.34,6.21,36.17,35.78,79.65,20.12,29.58,43.52,57.09,55.68,70.86a2.16,2.16,0,0,0,1.67.76h0a2.21,2.21,0,0,0,1.69-.76c12.15-13.76,35.55-41.27,55.67-70.86,29.57-43.48,35.78-67.31,35.78-79.65A93.24,93.24,0,0,0,113.13,20Zm0,157A63.85,63.85,0,1,1,177,113.14,63.92,63.92,0,0,1,113.13,177Zm0-107.7A43.85,43.85,0,1,0,157,113.14,43.9,43.9,0,0,0,113.13,69.29Z"/></svg>