<svg id="Capa_1" data-name="Capa 1" xmlns="http://www.w3.org/2000/svg" viewBox="0 0 187.93 284.38"><defs><style>.cls-1{fill:#4066d4;}</style></defs><title>PAGINA WEB COMPONENTES</title><path class="cls-1" d="M135.77,284.38a72,72,0,0,1-18-2.19L117,282l-.76-.36c-1.56-.74-38.56-18.63-65.4-58.91l-1.58-2.36C23.89,182.39,5.6,155,.36,78.79c-2-29.22,4.3-50.94,18.76-64.55C37.12-2.71,60.69.12,61.68.25l.84.11.8.25c1.08.33,26.42,8.51,37.7,49,4,14.24,3,26.37-3,36-9,14.67-26,18.06-31.62,19.17l-.75.15a26.42,26.42,0,0,0-2.56.67c-.71,2.78-2.44,13.16,4.79,30.92C78.59,162.82,94.13,188.61,97.56,192c1.11,1.05,3,2.83,3.71,3.05,0,0,1.41-.06,4.83-2.45l.58-.38c23.52-14.21,44.21-15,56.77-2l.93.95.65,1.16c7.54,13.59,20.5,38.68,21.05,39.74l.38.72.25.78c.32,1,7.59,24.55-17.45,41.38C158.06,282.44,145.62,284.38,135.77,284.38ZM124,263.13c3.77.85,20.94,4.05,34.14-4.82,11-7.37,10.14-15.86,9.7-18.07-2.39-4.62-12.85-24.78-19.5-36.85-6.73-5.39-20.68-.41-31,5.78C99.61,221.4,89,211.38,83.83,206.55c-7.39-7-24.45-37.9-34.45-62.47-10.87-26.7-6.17-42.62-4.69-46.46,3.11-9.28,13-11.4,16.79-12.21l1-.21c3.84-.77,14-2.8,18.49-10,2.91-4.74,3.17-11.54.75-20.21C74.58,29.22,61.55,21.62,58.11,20,54.51,19.86,42,20,32.67,29,22.9,38.29,18.75,54.59,20.32,77.42c4.87,70.88,21,95.12,45.53,131.81l1.58,2.37C89.17,244.21,118.73,260.43,124,263.13Z"/></svg>