<svg id="Capa_1" data-name="Capa 1" xmlns="http://www.w3.org/2000/svg" viewBox="0 0 15 15.23"><defs><style>.cls-1{fill:#2e3542;fill-rule:evenodd;}</style></defs><title>PAGINA WEB COMPONENTES</title><g id="Page-1"><g id="Core"><g id="settings"><path id="Shape" class="cls-1" d="M13.11,8.42c0-.23.08-.46.08-.77a2.25,2.25,0,0,0-.08-.76l1.61-1.3a.38.38,0,0,0,.08-.46L13.27,2.45a.44.44,0,0,0-.46-.08l-1.92.77a7,7,0,0,0-1.3-.77l-.3-2A.31.31,0,0,0,9,0H5.92c-.15,0-.38.15-.38.31L5.23,2.37a5.54,5.54,0,0,0-1.3.77L2.1,2.37a.49.49,0,0,0-.54.15L0,5.2c-.08.08,0,.31.15.46L1.79,6.89c0,.23-.08.46-.08.76a2.28,2.28,0,0,0,.08.77L.18,9.72a.36.36,0,0,0-.07.46l1.53,2.67a.41.41,0,0,0,.46.08L4,12.17a7.51,7.51,0,0,0,1.3.76l.31,2a.35.35,0,0,0,.38.31H9.06c.15,0,.38-.16.38-.31l.31-2a7.51,7.51,0,0,0,1.3-.76l1.91.76a.37.37,0,0,0,.46-.15L15,10.1c.08-.15.08-.38-.08-.46L13.11,8.42ZM7.45,10.33A2.72,2.72,0,0,1,4.77,7.65a2.68,2.68,0,1,1,2.68,2.68Z"/></g></g></g></svg>